<?xml version="1.0" encoding="utf-8"?>
<!-- Generator: Adobe Illustrator 25.0.1, SVG Export Plug-In . SVG Version: 6.00 Build 0)  -->
<svg version="1.0" id="Layer_1" xmlns="http://www.w3.org/2000/svg"
	 viewBox="0 0 898 490" style="enable-background:new 0 0 898 490;">
<style type="text/css">
	.st0{fill:#E76A25;}
	.st1{fill:none;}
</style>
<path class="st0" d="M144.2,188.3C44.5,192.8,82.7,302,82.7,302c8.7-9.5,36.6-32,75.8-32.1h0.2c19,0,30.1,16,25.8,32
	c0,0,29.4-34.5,13-73.8c-5.4-13-20.1-22.9-37.4-22.9c-6.2,0-12.3,1.2-18,3.5c-14.3,5.8-16.3,18.8-13.4,24.9c2.7,4.7,8,7.2,13.3,6.3
	c14.5-2.2,20.3-8.9,23.6-8.9c0.5,0,0.9,0.1,1.3,0.4c2,1.7,0.2,8.4-18.4,15.8c-6.6,2.5-13.7,3.9-20.8,3.9c-9.5,0-18.8-2.8-21.8-12.5
	c-5.8-17.6,15.1-38.8,46.3-41.2c1.7-0.2,3.5-0.2,5.2-0.2c12,0,23.7,4.2,32.9,11.9c-6.5-10.8-20.1-20.8-42-21.2
	C148.5,188.5,146.6,188.3,144.2,188.3"/>
<path d="M348.9,212.5v36.8h30.9c13.4,0,19.3-8.5,19.3-18c0-9.1-6-18.6-19.3-18.6h-30.9V212.5L348.9,212.5z M420,298.9h-19L370.2,264
	h-21.4v34.9h-16.2V197.6h47.2c23.4,0,35.7,16,35.7,33.1c0,14.5-7.4,28.6-27.5,31.6L420,298.9L420,298.9z M623.8,283.3h22.3
	c24.7,0,35.1-18.2,34.8-36c-0.4-17.1-10.8-34.2-34.8-34.2h-22.3L623.8,283.3z M646.1,197.6c34.6,0,50.4,24.7,50.8,49.8
	c0.5,25.6-15.4,51.5-50.8,51.5h-38.3V197.6H646.1z M709.3,197.6h16v101.3h-16V197.6z M805.8,220.1c-4.8-6.9-14.5-11.1-25.1-11.3
	c-13.6,0-23.4,5.6-23.4,15.4s11.3,12.6,24.5,14.5c20.8,3,40.7,8.7,40.7,31.4c-0.2,22.7-20.8,31.2-42,31.2c-19.3,0-34.4-6-43.5-23
	l12.1-8.2c7.2,12.3,19.9,16.7,31.6,16.7c12.1,0,25.7-4.1,25.7-16.7c0-11-11.7-14.7-25.8-16.7c-20.1-2.8-39.2-7.8-39.2-29.5
	c-0.2-21,20.8-29,39-29c14.7,0,29.2,3.5,37.7,17.1L805.8,220.1L805.8,220.1z M327.1,298.9l-45.5-101.3h-17.7l-45.4,101.3h17.1
	l37.2-84.2l21.2,48.1h-33.6l-6.5,14.9h46.7l9.3,21.2L327.1,298.9z M556.7,197.6H539l-29.5,65.8c-2.1,4.2-4.7,8-7.8,11.5
	c-7.2,6.9-16.8,10.9-26.8,11c-26.2,0-37.2-18.4-37.4-37s11.5-37.5,37.4-37.5c9.8-0.1,19.2,3.6,26.2,10.4l10.8-10.4
	c-9.8-9.9-23.1-15.4-37-15.4c-36.2,0-53.5,26.4-53.4,53.1c0.2,26.6,16.7,52,53.4,52c14.1,0,27.7-4.8,38.1-15c4.4-4.7,8-10.1,10.6-16
	l1.3-3l3-6.7l20.1-45.5l21.2,48.2h-33.5l-6.5,14.7h46.5l9.3,21.2h17.3L556.7,197.6z"/>
<rect x="49" y="170" class="st1" width="800" height="150"/>
</svg>
